#N canvas 0 25 1440 847 12;
#N canvas 297 171 974 541 loop 0;
#X obj 513 336 writesf~ 2;
#X msg 480 263 stop;
#X obj 390 447 readsf~;
#X obj 468 341 bng 15 250 50 0 empty empty empty 17 7 0 10 -262144
-1 -1;
#X msg 611 389 0;
#X obj 569 37 inlet~;
#X obj 428 485 outlet~;
#X obj 645 37 inlet;
#X obj 710 36 inlet, f 8;
#X obj 349 143 spigot;
#X obj 317 98 bng 15 250 50 0 empty empty empty 17 7 0 10 -262144 -1
-1;
#X obj 388 120 tgl 15 0 empty empty empty 17 7 0 10 -262144 -1 -1 0
1;
#X obj 411 144 + 1;
#X obj 411 170 % 2;
#X obj 317 200 spigot;
#X obj 558 487 outlet;
#X obj 128 116 bng 15 250 50 0 empty empty empty 17 7 0 10 -262144
-1 -1;
#X obj 36 155 random 99999;
#X obj 128 155 random 99999;
#X obj 220 155 random 99999;
#X obj 95 186 pack f f f;
#X msg 95 214 \$1_\$2_\$3.wav;
#X obj 95 243 pack s;
#X msg 413 414 1;
#X msg 390 387 open test.wav;
#X msg 403 296 start;
#X msg 323 264 open test.wav;
#X msg 95 271 open \$1;
#X obj 224 29 trigger;
#X connect 1 0 0 0;
#X connect 1 0 3 0;
#X connect 2 0 6 0;
#X connect 2 1 3 0;
#X connect 3 0 15 0;
#X connect 3 0 24 0;
#X connect 3 0 23 0;
#X connect 4 0 2 0;
#X connect 5 0 0 0;
#X connect 7 0 10 0;
#X connect 8 0 4 0;
#X connect 9 0 26 0;
#X connect 9 0 25 0;
#X connect 10 0 11 0;
#X connect 10 0 9 0;
#X connect 10 0 14 0;
#X connect 11 0 9 1;
#X connect 11 0 12 0;
#X connect 12 0 13 0;
#X connect 13 0 14 1;
#X connect 14 0 1 0;
#X connect 16 0 17 0;
#X connect 16 0 18 0;
#X connect 16 0 19 0;
#X connect 17 0 20 0;
#X connect 18 0 20 1;
#X connect 19 0 20 2;
#X connect 20 0 21 0;
#X connect 21 0 22 0;
#X connect 22 0 27 0;
#X connect 23 0 2 0;
#X connect 24 0 2 0;
#X connect 25 0 0 0;
#X connect 26 0 0 0;
#X restore 1143 54 pd loop;
#X obj 1118 16 adc~;
#X obj 1143 92 dac~;
#X obj 1136 180 spigot;
#X obj 1125 130 bng 15 250 50 0 empty empty empty 17 7 0 10 -262144
-1 -1;
#X obj 1136 209 bng 15 250 50 0 empty empty empty 17 7 0 10 -262144
-1 -1;
#X obj 1247 140 bng 15 250 50 0 empty empty empty 17 7 0 10 -262144
-1 -1;
#X obj 1309 165 + 1;
#X floatatom 1309 191 5 0 0 0 - - -;
#X obj 1247 165 int 0;
#X obj 1309 216 % 2;
#X floatatom 1309 243 5 0 0 0 - - -;
#X obj 1165 18 bng 15 250 50 0 empty empty empty 17 7 0 10 -262144
-1 -1;
#X obj 1189 17 bng 15 250 50 0 empty empty empty 17 7 0 10 -262144
-1 -1;
#X obj 1175 157 tgl 15 0 empty empty empty 17 7 0 10 -262144 -1 -1
0 1;
#X obj 1198 181 + 1;
#X obj 1198 207 % 2;
#X obj 1125 237 spigot;
#X obj 1125 263 bng 15 250 50 0 empty empty empty 17 7 0 10 -262144
-1 -1;
#X obj 1189 84 bng 15 250 50 0 empty empty empty 17 7 0 10 -262144
-1 -1;
#N canvas 610 153 812 535 loop2 0;
#X obj 513 338 writesf~ 2;
#X msg 480 263 stop;
#X obj 390 447 readsf~;
#X obj 489 345 bng 15 250 50 0 empty empty empty 17 7 0 10 -262144
-1 -1;
#X msg 611 389 0;
#X obj 568 8 inlet~;
#X obj 390 475 outlet~;
#X obj 644 8 inlet;
#X obj 709 7 inlet, f 8;
#X obj 422 92 spigot;
#X obj 390 47 bng 15 250 50 0 empty empty empty 17 7 0 10 -262144 -1
-1;
#X obj 461 69 tgl 15 0 empty empty empty 17 7 0 10 -262144 -1 -1 0
1;
#X obj 484 93 + 1;
#X obj 484 119 % 2;
#X obj 390 149 spigot;
#X obj 558 487 outlet;
#X msg 390 418 1;
#X msg 167 346 start;
#X msg 167 261 open \$1;
#X obj 200 110 bng 15 250 50 0 empty empty empty 17 7 0 10 -262144
-1 -1;
#X obj 108 149 random 99999;
#X obj 200 149 random 99999;
#X obj 292 149 random 99999;
#X obj 167 180 pack f f f;
#X msg 167 208 \$1_\$2_\$3.wav;
#X obj 167 237 pack s;
#X obj 146 320 delay 1;
#X obj 167 297 bng 15 250 50 0 empty empty empty 17 7 0 10 -262144
-1 -1;
#X obj 316 358 symbol;
#X obj 410 379 delay 50;
#X obj 76 288 print \$1;
#X msg 316 380 open \$1;
#X connect 1 0 3 0;
#X connect 1 0 0 0;
#X connect 2 0 6 0;
#X connect 2 1 3 0;
#X connect 3 0 15 0;
#X connect 3 0 28 0;
#X connect 3 0 16 0;
#X connect 4 0 2 0;
#X connect 5 0 0 0;
#X connect 7 0 10 0;
#X connect 8 0 4 0;
#X connect 9 0 19 0;
#X connect 10 0 11 0;
#X connect 10 0 9 0;
#X connect 10 0 14 0;
#X connect 11 0 9 1;
#X connect 11 0 12 0;
#X connect 12 0 13 0;
#X connect 13 0 14 1;
#X connect 14 0 1 0;
#X connect 16 0 2 0;
#X connect 17 0 0 0;
#X connect 18 0 0 0;
#X connect 18 0 27 0;
#X connect 18 0 30 0;
#X connect 19 0 20 0;
#X connect 19 0 21 0;
#X connect 19 0 22 0;
#X connect 20 0 23 0;
#X connect 21 0 23 1;
#X connect 22 0 23 2;
#X connect 23 0 24 0;
#X connect 24 0 25 0;
#X connect 25 0 18 0;
#X connect 25 0 28 0;
#X connect 27 0 17 0;
#X connect 28 0 31 0;
#X connect 31 0 2 0;
#X restore 62 117 pd loop2;
#X obj 38 20 adc~;
#X obj 107 12 bng 50 250 50 0 empty empty empty 17 7 0 10 -262144 -1
-1;
#X obj 115 90 bng 15 250 50 0 empty empty empty 17 7 0 10 -262144 -1
-1;
#X obj 288 724 dac~;
#X obj 115 145 bng 15 250 50 0 empty empty empty 17 7 0 10 -262144
-1 -1;
#N canvas 252 285 812 535 loop2 0;
#X obj 513 338 writesf~ 2;
#X msg 480 263 stop;
#X obj 390 447 readsf~;
#X obj 489 345 bng 15 250 50 0 empty empty empty 17 7 0 10 -262144
-1 -1;
#X msg 611 389 0;
#X obj 568 8 inlet~;
#X obj 390 475 outlet~;
#X obj 644 8 inlet;
#X obj 709 7 inlet, f 8;
#X obj 422 92 spigot;
#X obj 390 47 bng 15 250 50 0 empty empty empty 17 7 0 10 -262144 -1
-1;
#X obj 461 69 tgl 15 0 empty empty empty 17 7 0 10 -262144 -1 -1 0
1;
#X obj 484 93 + 1;
#X obj 484 119 % 2;
#X obj 390 149 spigot;
#X obj 558 487 outlet;
#X msg 390 418 1;
#X msg 167 346 start;
#X msg 167 261 open \$1;
#X obj 200 110 bng 15 250 50 0 empty empty empty 17 7 0 10 -262144
-1 -1;
#X obj 108 149 random 99999;
#X obj 200 149 random 99999;
#X obj 292 149 random 99999;
#X obj 167 180 pack f f f;
#X msg 167 208 \$1_\$2_\$3.wav;
#X obj 167 237 pack s;
#X obj 146 320 delay 1;
#X obj 167 297 bng 15 250 50 0 empty empty empty 17 7 0 10 -262144
-1 -1;
#X obj 316 358 symbol;
#X obj 410 379 delay 50;
#X obj 76 288 print \$1;
#X msg 316 380 open \$1;
#X connect 1 0 3 0;
#X connect 1 0 0 0;
#X connect 2 0 6 0;
#X connect 2 1 3 0;
#X connect 3 0 15 0;
#X connect 3 0 28 0;
#X connect 3 0 16 0;
#X connect 4 0 2 0;
#X connect 5 0 0 0;
#X connect 7 0 10 0;
#X connect 8 0 4 0;
#X connect 9 0 19 0;
#X connect 10 0 11 0;
#X connect 10 0 9 0;
#X connect 10 0 14 0;
#X connect 11 0 9 1;
#X connect 11 0 12 0;
#X connect 12 0 13 0;
#X connect 13 0 14 1;
#X connect 14 0 1 0;
#X connect 16 0 2 0;
#X connect 17 0 0 0;
#X connect 18 0 0 0;
#X connect 18 0 27 0;
#X connect 18 0 30 0;
#X connect 19 0 20 0;
#X connect 19 0 21 0;
#X connect 19 0 22 0;
#X connect 20 0 23 0;
#X connect 21 0 23 1;
#X connect 22 0 23 2;
#X connect 23 0 24 0;
#X connect 24 0 25 0;
#X connect 25 0 18 0;
#X connect 25 0 28 0;
#X connect 27 0 17 0;
#X connect 28 0 31 0;
#X connect 31 0 2 0;
#X restore 193 277 pd loop2;
#X obj 246 254 bng 15 250 50 0 empty empty empty 17 7 0 10 -262144
-1 -1;
#X obj 246 302 bng 15 250 50 0 empty empty empty 17 7 0 10 -262144
-1 -1;
#N canvas 68 189 834 543 looper 0;
#X obj 354 355 writesf~ 2;
#X msg 390 183 stop;
#X obj 390 483 readsf~;
#X obj 489 381 bng 15 250 50 0 empty empty empty 17 7 0 10 -262144
-1 -1;
#X msg 611 389 0;
#X obj 355 8 inlet~;
#X obj 390 511 outlet~;
#X obj 644 8 inlet;
#X obj 709 7 inlet, f 8;
#X obj 408 97 spigot;
#X obj 390 47 bng 15 250 50 0 empty empty empty 17 7 0 10 -262144 -1
-1;
#X obj 447 74 tgl 15 0 empty empty empty 17 7 0 10 -262144 -1 -1 0
1;
#X obj 470 98 + 1;
#X obj 470 124 % 2;
#X obj 390 149 spigot;
#X obj 479 513 outlet;
#X msg 390 454 1;
#X msg 129 310 start;
#X msg 129 261 open \$1;
#X obj 162 110 bng 15 250 50 0 empty empty empty 17 7 0 10 -262144
-1 -1;
#X obj 70 149 random 99999;
#X obj 162 149 random 99999;
#X obj 254 149 random 99999;
#X obj 129 180 pack f f f;
#X msg 129 208 \$1_\$2_\$3.wav;
#X obj 129 237 pack s;
#X obj 129 286 bng 15 250 50 0 empty empty empty 17 7 0 10 -262144
-1 -1;
#X obj 316 394 symbol;
#X msg 316 416 open \$1;
#X obj 38 288 print;
#X connect 1 0 3 0;
#X connect 1 0 0 0;
#X connect 2 0 6 0;
#X connect 2 1 3 0;
#X connect 3 0 15 0;
#X connect 3 0 27 0;
#X connect 3 0 16 0;
#X connect 4 0 2 0;
#X connect 5 0 0 0;
#X connect 7 0 10 0;
#X connect 8 0 4 0;
#X connect 9 0 19 0;
#X connect 10 0 11 0;
#X connect 10 0 9 0;
#X connect 10 0 14 0;
#X connect 11 0 9 1;
#X connect 11 0 12 0;
#X connect 12 0 13 0;
#X connect 13 0 14 1;
#X connect 14 0 1 0;
#X connect 16 0 2 0;
#X connect 17 0 0 0;
#X connect 18 0 0 0;
#X connect 18 0 26 0;
#X connect 18 0 29 0;
#X connect 19 0 20 0;
#X connect 19 0 21 0;
#X connect 19 0 22 0;
#X connect 20 0 23 0;
#X connect 21 0 23 1;
#X connect 22 0 23 2;
#X connect 23 0 24 0;
#X connect 24 0 25 0;
#X connect 25 0 18 0;
#X connect 25 0 27 0;
#X connect 26 0 17 0;
#X connect 27 0 28 0;
#X connect 28 0 2 0;
#X restore 1228 344 pd looper;
#X text 1207 55 <- only (over)writes test.wav;
#X text 1122 367 TODO loop2 subpatch cleaner version;
#X obj 38 49 s~ inL;
#X obj 15 358 r~ inL;
#X obj 25 92 r~ inL;
#X obj 62 143 s~ l1;
#X obj 155 252 r~ inL;
#X obj 193 301 s~ l2;
#X obj 88 359 r~ l1;
#X obj 158 361 r~ l2;
#N canvas 0 175 803 511 loop2 1;
#X obj 513 338 writesf~ 2;
#X msg 480 263 stop;
#X obj 390 447 readsf~;
#X obj 489 345 bng 15 250 50 0 empty empty empty 17 7 0 10 -262144
-1 -1;
#X msg 611 389 0;
#X obj 568 8 inlet~;
#X obj 390 475 outlet~;
#X obj 644 8 inlet;
#X obj 709 7 inlet, f 8;
#X obj 422 92 spigot;
#X obj 390 47 bng 15 250 50 0 empty empty empty 17 7 0 10 -262144 -1
-1;
#X obj 461 69 tgl 15 0 empty empty empty 17 7 0 10 -262144 -1 -1 0
1;
#X obj 484 93 + 1;
#X obj 484 119 % 2;
#X obj 390 149 spigot;
#X obj 558 487 outlet;
#X msg 390 418 1;
#X msg 167 346 start;
#X msg 167 261 open \$1;
#X obj 200 110 bng 15 250 50 0 empty empty empty 17 7 0 10 -262144
-1 -1;
#X obj 108 149 random 99999;
#X obj 200 149 random 99999;
#X obj 292 149 random 99999;
#X obj 167 180 pack f f f;
#X msg 167 208 \$1_\$2_\$3.wav;
#X obj 167 237 pack s;
#X obj 146 320 delay 1;
#X obj 167 297 bng 15 250 50 0 empty empty empty 17 7 0 10 -262144
-1 -1;
#X obj 316 358 symbol;
#X obj 410 379 delay 50;
#X obj 76 288 print \$1;
#X msg 316 380 open \$1;
#X connect 1 0 3 0;
#X connect 1 0 0 0;
#X connect 2 0 6 0;
#X connect 2 1 3 0;
#X connect 3 0 15 0;
#X connect 3 0 28 0;
#X connect 3 0 16 0;
#X connect 4 0 2 0;
#X connect 5 0 0 0;
#X connect 7 0 10 0;
#X connect 8 0 4 0;
#X connect 9 0 19 0;
#X connect 10 0 11 0;
#X connect 10 0 9 0;
#X connect 10 0 14 0;
#X connect 11 0 9 1;
#X connect 11 0 12 0;
#X connect 12 0 13 0;
#X connect 13 0 14 1;
#X connect 14 0 1 0;
#X connect 16 0 2 0;
#X connect 17 0 0 0;
#X connect 18 0 0 0;
#X connect 18 0 27 0;
#X connect 18 0 30 0;
#X connect 19 0 20 0;
#X connect 19 0 21 0;
#X connect 19 0 22 0;
#X connect 20 0 23 0;
#X connect 21 0 23 1;
#X connect 22 0 23 2;
#X connect 23 0 24 0;
#X connect 24 0 25 0;
#X connect 25 0 18 0;
#X connect 25 0 28 0;
#X connect 27 0 17 0;
#X connect 28 0 31 0;
#X connect 31 0 2 0;
#X restore 332 281 pd loop2;
#X obj 385 258 bng 15 250 50 0 empty empty empty 17 7 0 10 -262144
-1 -1;
#X obj 385 306 bng 15 250 50 0 empty empty empty 17 7 0 10 -262144
-1 -1;
#X obj 308 256 r~ inL;
#X obj 332 305 s~ l3;
#N canvas 628 111 812 535 loop2 0;
#X obj 513 338 writesf~ 2;
#X msg 480 263 stop;
#X obj 390 447 readsf~;
#X obj 489 345 bng 15 250 50 0 empty empty empty 17 7 0 10 -262144
-1 -1;
#X msg 611 389 0;
#X obj 568 8 inlet~;
#X obj 390 475 outlet~;
#X obj 644 8 inlet;
#X obj 709 7 inlet, f 8;
#X obj 422 92 spigot;
#X obj 390 47 bng 15 250 50 0 empty empty empty 17 7 0 10 -262144 -1
-1;
#X obj 461 69 tgl 15 0 empty empty empty 17 7 0 10 -262144 -1 -1 0
1;
#X obj 484 93 + 1;
#X obj 484 119 % 2;
#X obj 390 149 spigot;
#X obj 558 487 outlet;
#X msg 390 418 1;
#X msg 167 346 start;
#X msg 167 261 open \$1;
#X obj 200 110 bng 15 250 50 0 empty empty empty 17 7 0 10 -262144
-1 -1;
#X obj 108 149 random 99999;
#X obj 200 149 random 99999;
#X obj 292 149 random 99999;
#X obj 167 180 pack f f f;
#X msg 167 208 \$1_\$2_\$3.wav;
#X obj 167 237 pack s;
#X obj 146 320 delay 1;
#X obj 167 297 bng 15 250 50 0 empty empty empty 17 7 0 10 -262144
-1 -1;
#X obj 316 358 symbol;
#X obj 410 379 delay 50;
#X obj 76 288 print \$1;
#X msg 316 380 open \$1;
#X connect 1 0 3 0;
#X connect 1 0 0 0;
#X connect 2 0 6 0;
#X connect 2 1 3 0;
#X connect 3 0 15 0;
#X connect 3 0 28 0;
#X connect 3 0 16 0;
#X connect 4 0 2 0;
#X connect 5 0 0 0;
#X connect 7 0 10 0;
#X connect 8 0 4 0;
#X connect 9 0 19 0;
#X connect 10 0 11 0;
#X connect 10 0 9 0;
#X connect 10 0 14 0;
#X connect 11 0 9 1;
#X connect 11 0 12 0;
#X connect 12 0 13 0;
#X connect 13 0 14 1;
#X connect 14 0 1 0;
#X connect 16 0 2 0;
#X connect 17 0 0 0;
#X connect 18 0 0 0;
#X connect 18 0 27 0;
#X connect 18 0 30 0;
#X connect 19 0 20 0;
#X connect 19 0 21 0;
#X connect 19 0 22 0;
#X connect 20 0 23 0;
#X connect 21 0 23 1;
#X connect 22 0 23 2;
#X connect 23 0 24 0;
#X connect 24 0 25 0;
#X connect 25 0 18 0;
#X connect 25 0 28 0;
#X connect 27 0 17 0;
#X connect 28 0 31 0;
#X connect 31 0 2 0;
#X restore 477 285 pd loop2;
#X obj 530 262 bng 15 250 50 0 empty empty empty 17 7 0 10 -262144
-1 -1;
#X obj 530 310 bng 15 250 50 0 empty empty empty 17 7 0 10 -262144
-1 -1;
#X obj 439 260 r~ inL;
#X obj 477 309 s~ l4;
#X obj 228 360 r~ l3;
#X obj 295 360 r~ l4;
#X obj 358 235 spigot;
#X obj 397 188 tgl 15 0 empty empty empty 17 7 0 10 -262144 -1 -1 0
1;
#X obj 219 229 spigot;
#X obj 258 184 tgl 15 0 empty empty empty 17 7 0 10 -262144 -1 -1 0
1;
#X obj 115 168 s beat;
#X obj 308 210 r beat;
#X obj 451 216 r beat;
#X obj 172 206 r beat;
#X obj 503 240 spigot;
#X obj 542 192 tgl 15 0 empty empty empty 17 7 0 10 -262144 -1 -1 0
1;
#N canvas 628 111 812 535 loop2 0;
#X obj 513 338 writesf~ 2;
#X msg 480 263 stop;
#X obj 390 447 readsf~;
#X obj 489 345 bng 15 250 50 0 empty empty empty 17 7 0 10 -262144
-1 -1;
#X msg 611 389 0;
#X obj 568 8 inlet~;
#X obj 390 475 outlet~;
#X obj 644 8 inlet;
#X obj 709 7 inlet, f 8;
#X obj 422 92 spigot;
#X obj 390 47 bng 15 250 50 0 empty empty empty 17 7 0 10 -262144 -1
-1;
#X obj 461 69 tgl 15 0 empty empty empty 17 7 0 10 -262144 -1 -1 0
1;
#X obj 484 93 + 1;
#X obj 484 119 % 2;
#X obj 390 149 spigot;
#X obj 558 487 outlet;
#X msg 390 418 1;
#X msg 167 346 start;
#X msg 167 261 open \$1;
#X obj 200 110 bng 15 250 50 0 empty empty empty 17 7 0 10 -262144
-1 -1;
#X obj 108 149 random 99999;
#X obj 200 149 random 99999;
#X obj 292 149 random 99999;
#X obj 167 180 pack f f f;
#X msg 167 208 \$1_\$2_\$3.wav;
#X obj 167 237 pack s;
#X obj 146 320 delay 1;
#X obj 167 297 bng 15 250 50 0 empty empty empty 17 7 0 10 -262144
-1 -1;
#X obj 316 358 symbol;
#X obj 410 379 delay 50;
#X obj 76 288 print \$1;
#X msg 316 380 open \$1;
#X connect 1 0 3 0;
#X connect 1 0 0 0;
#X connect 2 0 6 0;
#X connect 2 1 3 0;
#X connect 3 0 15 0;
#X connect 3 0 28 0;
#X connect 3 0 16 0;
#X connect 4 0 2 0;
#X connect 5 0 0 0;
#X connect 7 0 10 0;
#X connect 8 0 4 0;
#X connect 9 0 19 0;
#X connect 10 0 11 0;
#X connect 10 0 9 0;
#X connect 10 0 14 0;
#X connect 11 0 9 1;
#X connect 11 0 12 0;
#X connect 12 0 13 0;
#X connect 13 0 14 1;
#X connect 14 0 1 0;
#X connect 16 0 2 0;
#X connect 17 0 0 0;
#X connect 18 0 0 0;
#X connect 18 0 27 0;
#X connect 18 0 30 0;
#X connect 19 0 20 0;
#X connect 19 0 21 0;
#X connect 19 0 22 0;
#X connect 20 0 23 0;
#X connect 21 0 23 1;
#X connect 22 0 23 2;
#X connect 23 0 24 0;
#X connect 24 0 25 0;
#X connect 25 0 18 0;
#X connect 25 0 28 0;
#X connect 27 0 17 0;
#X connect 28 0 31 0;
#X connect 31 0 2 0;
#X restore 620 284 pd loop2;
#X obj 673 261 bng 15 250 50 0 empty empty empty 17 7 0 10 -262144
-1 -1;
#X obj 673 309 bng 15 250 50 0 empty empty empty 17 7 0 10 -262144
-1 -1;
#X obj 582 259 r~ inL;
#X obj 594 215 r beat;
#X obj 646 239 spigot;
#X obj 685 192 tgl 15 0 empty empty empty 17 7 0 10 -262144 -1 -1 0
1;
#X obj 620 308 s~ l5;
#N canvas 628 111 812 535 loop2 0;
#X obj 513 338 writesf~ 2;
#X msg 480 263 stop;
#X obj 390 447 readsf~;
#X obj 489 345 bng 15 250 50 0 empty empty empty 17 7 0 10 -262144
-1 -1;
#X msg 611 389 0;
#X obj 568 8 inlet~;
#X obj 390 475 outlet~;
#X obj 644 8 inlet;
#X obj 709 7 inlet, f 8;
#X obj 422 92 spigot;
#X obj 390 47 bng 15 250 50 0 empty empty empty 17 7 0 10 -262144 -1
-1;
#X obj 461 69 tgl 15 0 empty empty empty 17 7 0 10 -262144 -1 -1 0
1;
#X obj 484 93 + 1;
#X obj 484 119 % 2;
#X obj 390 149 spigot;
#X obj 558 487 outlet;
#X msg 390 418 1;
#X msg 167 346 start;
#X msg 167 261 open \$1;
#X obj 200 110 bng 15 250 50 0 empty empty empty 17 7 0 10 -262144
-1 -1;
#X obj 108 149 random 99999;
#X obj 200 149 random 99999;
#X obj 292 149 random 99999;
#X obj 167 180 pack f f f;
#X msg 167 208 \$1_\$2_\$3.wav;
#X obj 167 237 pack s;
#X obj 146 320 delay 1;
#X obj 167 297 bng 15 250 50 0 empty empty empty 17 7 0 10 -262144
-1 -1;
#X obj 316 358 symbol;
#X obj 410 379 delay 50;
#X obj 76 288 print \$1;
#X msg 316 380 open \$1;
#X connect 1 0 3 0;
#X connect 1 0 0 0;
#X connect 2 0 6 0;
#X connect 2 1 3 0;
#X connect 3 0 15 0;
#X connect 3 0 28 0;
#X connect 3 0 16 0;
#X connect 4 0 2 0;
#X connect 5 0 0 0;
#X connect 7 0 10 0;
#X connect 8 0 4 0;
#X connect 9 0 19 0;
#X connect 10 0 11 0;
#X connect 10 0 9 0;
#X connect 10 0 14 0;
#X connect 11 0 9 1;
#X connect 11 0 12 0;
#X connect 12 0 13 0;
#X connect 13 0 14 1;
#X connect 14 0 1 0;
#X connect 16 0 2 0;
#X connect 17 0 0 0;
#X connect 18 0 0 0;
#X connect 18 0 27 0;
#X connect 18 0 30 0;
#X connect 19 0 20 0;
#X connect 19 0 21 0;
#X connect 19 0 22 0;
#X connect 20 0 23 0;
#X connect 21 0 23 1;
#X connect 22 0 23 2;
#X connect 23 0 24 0;
#X connect 24 0 25 0;
#X connect 25 0 18 0;
#X connect 25 0 28 0;
#X connect 27 0 17 0;
#X connect 28 0 31 0;
#X connect 31 0 2 0;
#X restore 769 284 pd loop2;
#X obj 822 261 bng 15 250 50 0 empty empty empty 17 7 0 10 -262144
-1 -1;
#X obj 822 309 bng 15 250 50 0 empty empty empty 17 7 0 10 -262144
-1 -1;
#X obj 731 259 r~ inL;
#X obj 743 215 r beat;
#X obj 795 239 spigot;
#X obj 834 188 tgl 15 0 empty empty empty 17 7 0 10 -262144 -1 -1 0
1;
#X obj 769 308 s~ l6;
#N canvas 628 111 812 535 loop2 0;
#X obj 513 338 writesf~ 2;
#X msg 480 263 stop;
#X obj 390 447 readsf~;
#X obj 489 345 bng 15 250 50 0 empty empty empty 17 7 0 10 -262144
-1 -1;
#X msg 611 389 0;
#X obj 568 8 inlet~;
#X obj 390 475 outlet~;
#X obj 644 8 inlet;
#X obj 709 7 inlet, f 8;
#X obj 422 92 spigot;
#X obj 390 47 bng 15 250 50 0 empty empty empty 17 7 0 10 -262144 -1
-1;
#X obj 461 69 tgl 15 0 empty empty empty 17 7 0 10 -262144 -1 -1 0
1;
#X obj 484 93 + 1;
#X obj 484 119 % 2;
#X obj 390 149 spigot;
#X obj 558 487 outlet;
#X msg 390 418 1;
#X msg 167 346 start;
#X msg 167 261 open \$1;
#X obj 200 110 bng 15 250 50 0 empty empty empty 17 7 0 10 -262144
-1 -1;
#X obj 108 149 random 99999;
#X obj 200 149 random 99999;
#X obj 292 149 random 99999;
#X obj 167 180 pack f f f;
#X msg 167 208 \$1_\$2_\$3.wav;
#X obj 167 237 pack s;
#X obj 146 320 delay 1;
#X obj 167 297 bng 15 250 50 0 empty empty empty 17 7 0 10 -262144
-1 -1;
#X obj 316 358 symbol;
#X obj 410 379 delay 50;
#X obj 76 288 print \$1;
#X msg 316 380 open \$1;
#X connect 1 0 3 0;
#X connect 1 0 0 0;
#X connect 2 0 6 0;
#X connect 2 1 3 0;
#X connect 3 0 15 0;
#X connect 3 0 28 0;
#X connect 3 0 16 0;
#X connect 4 0 2 0;
#X connect 5 0 0 0;
#X connect 7 0 10 0;
#X connect 8 0 4 0;
#X connect 9 0 19 0;
#X connect 10 0 11 0;
#X connect 10 0 9 0;
#X connect 10 0 14 0;
#X connect 11 0 9 1;
#X connect 11 0 12 0;
#X connect 12 0 13 0;
#X connect 13 0 14 1;
#X connect 14 0 1 0;
#X connect 16 0 2 0;
#X connect 17 0 0 0;
#X connect 18 0 0 0;
#X connect 18 0 27 0;
#X connect 18 0 30 0;
#X connect 19 0 20 0;
#X connect 19 0 21 0;
#X connect 19 0 22 0;
#X connect 20 0 23 0;
#X connect 21 0 23 1;
#X connect 22 0 23 2;
#X connect 23 0 24 0;
#X connect 24 0 25 0;
#X connect 25 0 18 0;
#X connect 25 0 28 0;
#X connect 27 0 17 0;
#X connect 28 0 31 0;
#X connect 31 0 2 0;
#X restore 916 285 pd loop2;
#X obj 969 262 bng 15 250 50 0 empty empty empty 17 7 0 10 -262144
-1 -1;
#X obj 969 310 bng 15 250 50 0 empty empty empty 17 7 0 10 -262144
-1 -1;
#X obj 878 260 r~ inL;
#X obj 890 216 r beat;
#X obj 942 240 spigot;
#X obj 981 192 tgl 15 0 empty empty empty 17 7 0 10 -262144 -1 -1 0
1;
#X obj 916 309 s~ l7;
#X obj 369 359 r~ l5;
#X obj 444 360 r~ l6;
#X obj 522 362 r~ l7;
#X obj 541 388 vsl 15 128 0 127 0 0 empty empty empty 0 -9 0 10 -159808
-1 -1 0 1;
#X obj 523 552 *~;
#X obj 541 527 /~ 127;
#X obj 464 387 vsl 15 128 0 127 0 0 empty empty empty 0 -9 0 10 -159808
-1 -1 10300 1;
#X obj 446 551 *~;
#X obj 464 526 /~ 127;
#X obj 387 388 vsl 15 128 0 127 0 0 empty empty empty 0 -9 0 10 -159808
-1 -1 10600 1;
#X obj 369 552 *~;
#X obj 387 527 /~ 127;
#X obj 314 388 vsl 15 128 0 127 0 0 empty empty empty 0 -9 0 10 -159808
-1 -1 10300 1;
#X obj 296 552 *~;
#X obj 314 527 /~ 127;
#X obj 246 387 vsl 15 128 0 127 0 0 empty empty empty 0 -9 0 10 -159808
-1 -1 12400 1;
#X obj 228 551 *~;
#X obj 246 526 /~ 127;
#X obj 176 387 vsl 15 128 0 127 0 0 empty empty empty 0 -9 0 10 -159808
-1 -1 12700 1;
#X obj 158 551 *~;
#X obj 176 526 /~ 127;
#X obj 106 387 vsl 15 128 0 127 0 0 empty empty empty 0 -9 0 10 -159808
-1 -1 3900 1;
#X obj 88 551 *~;
#X obj 106 526 /~ 127;
#X obj 32 386 vsl 15 128 0 127 0 0 empty empty empty 0 -9 0 10 -159808
-1 -1 12700 1;
#X obj 14 550 *~;
#X obj 32 525 /~ 127;
#X obj 553 728 writesf~ 2;
#X msg 620 690 stop;
#X msg 620 657 start;
#X obj 288 680 *~ 1;
#X msg 620 617 open mixdown.wav;
#X connect 0 0 2 0;
#X connect 0 0 2 1;
#X connect 0 1 19 0;
#X connect 1 0 0 0;
#X connect 1 1 0 0;
#X connect 3 0 5 0;
#X connect 4 0 14 0;
#X connect 4 0 3 0;
#X connect 4 0 17 0;
#X connect 6 0 9 0;
#X connect 7 0 8 0;
#X connect 7 0 9 1;
#X connect 8 0 10 0;
#X connect 9 0 7 0;
#X connect 10 0 11 0;
#X connect 12 0 0 1;
#X connect 13 0 0 2;
#X connect 14 0 3 1;
#X connect 14 0 15 0;
#X connect 15 0 16 0;
#X connect 16 0 17 1;
#X connect 17 0 18 0;
#X connect 20 0 35 0;
#X connect 20 1 25 0;
#X connect 21 0 32 0;
#X connect 21 1 32 0;
#X connect 22 0 20 1;
#X connect 23 0 20 2;
#X connect 25 0 56 0;
#X connect 26 0 37 0;
#X connect 26 1 28 0;
#X connect 27 0 26 2;
#X connect 33 0 111 0;
#X connect 34 0 20 0;
#X connect 36 0 26 0;
#X connect 38 0 108 0;
#X connect 39 0 105 0;
#X connect 40 0 44 0;
#X connect 40 1 42 0;
#X connect 41 0 40 2;
#X connect 43 0 40 0;
#X connect 45 0 49 0;
#X connect 45 1 47 0;
#X connect 46 0 45 2;
#X connect 48 0 45 0;
#X connect 50 0 102 0;
#X connect 51 0 99 0;
#X connect 52 0 53 0;
#X connect 52 0 40 1;
#X connect 53 0 52 1;
#X connect 54 0 26 1;
#X connect 54 0 55 0;
#X connect 55 0 54 1;
#X connect 57 0 52 0;
#X connect 58 0 60 0;
#X connect 59 0 54 0;
#X connect 60 0 61 0;
#X connect 60 0 45 1;
#X connect 61 0 60 1;
#X connect 62 0 69 0;
#X connect 62 1 64 0;
#X connect 63 0 62 2;
#X connect 65 0 62 0;
#X connect 66 0 67 0;
#X connect 67 0 68 0;
#X connect 67 0 62 1;
#X connect 68 0 67 1;
#X connect 70 0 77 0;
#X connect 70 1 72 0;
#X connect 71 0 70 2;
#X connect 73 0 70 0;
#X connect 74 0 75 0;
#X connect 75 0 76 0;
#X connect 75 0 70 1;
#X connect 76 0 75 1;
#X connect 78 0 85 0;
#X connect 78 1 80 0;
#X connect 79 0 78 2;
#X connect 81 0 78 0;
#X connect 82 0 83 0;
#X connect 83 0 84 0;
#X connect 83 0 78 1;
#X connect 84 0 83 1;
#X connect 86 0 96 0;
#X connect 87 0 93 0;
#X connect 88 0 90 0;
#X connect 89 0 91 0;
#X connect 90 0 116 0;
#X connect 91 0 90 1;
#X connect 92 0 94 0;
#X connect 93 0 116 0;
#X connect 94 0 93 1;
#X connect 95 0 97 0;
#X connect 96 0 116 0;
#X connect 97 0 96 1;
#X connect 98 0 100 0;
#X connect 99 0 116 0;
#X connect 100 0 99 1;
#X connect 101 0 103 0;
#X connect 102 0 116 0;
#X connect 103 0 102 1;
#X connect 104 0 106 0;
#X connect 105 0 116 0;
#X connect 106 0 105 1;
#X connect 107 0 109 0;
#X connect 108 0 116 0;
#X connect 109 0 108 1;
#X connect 110 0 112 0;
#X connect 111 0 116 0;
#X connect 112 0 111 1;
#X connect 114 0 113 0;
#X connect 115 0 113 0;
#X connect 116 0 24 0;
#X connect 116 0 24 1;
#X connect 116 0 113 0;
#X connect 117 0 113 0;
