#N canvas 0 25 1414 791 12;
#X obj 135 199 tabplay_loop;
#X obj 45 31 adc~;
#X obj 919 643 dac~;
#X obj 156 252 hsl 100 15 0 127 0 0 empty empty empty -2 -8 0 10 -257985
-1 -1 0 1;
#X obj 135 275 *~;
#N canvas 0 25 621 421 arr 0;
#X obj 10 10 array define myarray;
#X restore 46 646 pd arr;
#X obj 46 617 s pd-arr;
#X msg 46 588 obj 10 10 array define myarray;
#X obj 50 338 *~;
#X obj 68 195 vsl 15 128 0 127 0 0 empty empty empty 0 -9 0 10 -261234
-1 -1 6200 1;
#X obj 1106 689 writesf~ 2;
#X msg 1173 651 stop;
#X msg 1173 624 start;
#X msg 1172 597 open mixdown.wav;
#X obj 45 65 s~ in;
#X obj 50 167 r~ in;
#X obj 135 167 r~ in;
#X obj 978 588 hsl 128 15 1e-05 5 1 0 empty empty empty -2 -8 0 10
-261234 -1 -1 0 1;
#X obj 918 601 *~;
#X obj 216 143 bng 50 250 50 0 empty empty CLEAR 3 25 0 15 -260097
-1 -1;
#X obj 175 39 bng 100 250 50 0 empty empty START/STOP 5 50 0 15 -4034
-1 -1;
#X obj 369 231 tabplay_loop;
#X obj 390 261 hsl 100 15 0 127 0 0 empty empty empty -2 -8 0 10 -224709
-1 -1 9900 1;
#X obj 369 284 *~;
#X obj 343 204 r~ in;
#X obj 450 175 bng 50 250 50 0 empty empty CLEAR 3 25 0 15 -218819
-1 -1;
#X obj 352 149 spigot;
#X obj 410 78 tgl 90 0 empty empty START/STOP 0 45 0 15 -2628 -1 -1
0 1;
#X obj 352 79 r beat;
#X obj 216 224 send beat;
#X obj 955 409 r~ out0;
#X obj 961 438 r~ out1;
#X obj 970 465 r~ out2;
#X obj 50 366 s~ out;
#X obj 135 304 s~ out0;
#X obj 369 314 s~ out1;
#X obj 949 382 r~ out;
#X obj 979 496 r~ out3;
#X obj 987 525 r~ out4;
#X obj 991 554 r~ out5;
#X obj 565 231 tabplay_loop;
#X obj 586 261 hsl 100 15 0 127 0 0 empty empty empty -2 -8 0 10 -224709
-1 -1 0 1;
#X obj 565 284 *~;
#X obj 539 204 r~ in;
#X obj 646 175 bng 50 250 50 0 empty empty CLEAR 3 25 0 15 -218819
-1 -1;
#X obj 548 149 spigot;
#X obj 606 78 tgl 90 0 empty empty START/STOP 0 45 0 15 -2628 -1 -1
0 1;
#X obj 548 79 r beat;
#X obj 565 314 s~ out1;
#X obj 768 231 tabplay_loop;
#X obj 789 261 hsl 100 15 0 127 0 0 empty empty empty -2 -8 0 10 -224709
-1 -1 0 1;
#X obj 768 284 *~;
#X obj 742 204 r~ in;
#X obj 849 175 bng 50 250 50 0 empty empty CLEAR 3 25 0 15 -218819
-1 -1;
#X obj 751 149 spigot;
#X obj 809 78 tgl 90 0 empty empty START/STOP 0 45 0 15 -2628 -1 -1
0 1;
#X obj 751 79 r beat;
#X obj 768 314 s~ out1;
#X obj 968 231 tabplay_loop;
#X obj 989 261 hsl 100 15 0 127 0 0 empty empty empty -2 -8 0 10 -224709
-1 -1 0 1;
#X obj 968 284 *~;
#X obj 942 204 r~ in;
#X obj 1049 175 bng 50 250 50 0 empty empty CLEAR 3 25 0 15 -218819
-1 -1;
#X obj 951 149 spigot;
#X obj 1009 78 tgl 90 0 empty empty START/STOP 0 45 0 15 -2628 -1 -1
0 1;
#X obj 951 79 r beat;
#X obj 968 314 s~ out1;
#X obj 1151 231 tabplay_loop;
#X obj 1172 261 hsl 100 15 0 127 0 0 empty empty empty -2 -8 0 10 -224709
-1 -1 0 1;
#X obj 1151 284 *~;
#X obj 1125 204 r~ in;
#X obj 1232 175 bng 50 250 50 0 empty empty CLEAR 3 25 0 15 -218819
-1 -1;
#X obj 1134 149 spigot;
#X obj 1192 78 tgl 90 0 empty empty START/STOP 0 45 0 15 -2628 -1 -1
0 1;
#X obj 1134 79 r beat;
#X obj 1151 314 s~ out1;
#X connect 0 0 4 0;
#X connect 0 1 29 0;
#X connect 1 0 14 0;
#X connect 1 1 14 0;
#X connect 3 0 4 1;
#X connect 4 0 34 0;
#X connect 7 0 6 0;
#X connect 8 0 33 0;
#X connect 9 0 8 1;
#X connect 11 0 10 0;
#X connect 12 0 10 0;
#X connect 13 0 10 0;
#X connect 15 0 8 0;
#X connect 16 0 0 0;
#X connect 17 0 18 1;
#X connect 18 0 2 0;
#X connect 18 0 2 1;
#X connect 18 0 10 0;
#X connect 19 0 0 2;
#X connect 20 0 0 1;
#X connect 21 0 23 0;
#X connect 22 0 23 1;
#X connect 23 0 35 0;
#X connect 24 0 21 0;
#X connect 25 0 21 2;
#X connect 26 0 27 0;
#X connect 26 0 21 1;
#X connect 27 0 26 1;
#X connect 28 0 26 0;
#X connect 30 0 18 0;
#X connect 31 0 18 0;
#X connect 32 0 18 0;
#X connect 36 0 18 0;
#X connect 37 0 18 0;
#X connect 38 0 18 0;
#X connect 39 0 18 0;
#X connect 40 0 42 0;
#X connect 41 0 42 1;
#X connect 42 0 48 0;
#X connect 43 0 40 0;
#X connect 44 0 40 2;
#X connect 45 0 46 0;
#X connect 45 0 40 1;
#X connect 46 0 45 1;
#X connect 47 0 45 0;
#X connect 49 0 51 0;
#X connect 50 0 51 1;
#X connect 51 0 57 0;
#X connect 52 0 49 0;
#X connect 53 0 49 2;
#X connect 54 0 55 0;
#X connect 54 0 49 1;
#X connect 55 0 54 1;
#X connect 56 0 54 0;
#X connect 58 0 60 0;
#X connect 59 0 60 1;
#X connect 60 0 66 0;
#X connect 61 0 58 0;
#X connect 62 0 58 2;
#X connect 63 0 64 0;
#X connect 63 0 58 1;
#X connect 64 0 63 1;
#X connect 65 0 63 0;
#X connect 67 0 69 0;
#X connect 68 0 69 1;
#X connect 69 0 75 0;
#X connect 70 0 67 0;
#X connect 71 0 67 2;
#X connect 72 0 73 0;
#X connect 72 0 67 1;
#X connect 73 0 72 1;
#X connect 74 0 72 0;
