#N canvas 0 25 1440 847 12;
#X obj -19 -1 cnv 100 1500 900 empty empty empty 20 12 0 14 -66577
-66577 0;
#X obj 33 143 tabplay_loop;
#X obj 9 11 adc~;
#X obj 743 784 dac~;
#X obj 9 45 s~ in;
#X obj 846 738 hsl 500 50 1e-05 5 1 0 empty empty empty -2 -8 0 10
-1213 -1 -1 19000 0;
#X obj 742 742 *~;
#X obj 126 112 bng 50 250 50 0 empty empty CLEAR 3 25 0 15 -4032 -1
-1;
#X obj 73 6 bng 100 250 50 0 empty empty START/STOP 5 50 0 15 -159808
-1 -1;
#X obj 218 184 tabplay_loop;
#X obj 192 157 r~ in;
#X obj 299 128 bng 50 250 50 0 empty empty CLEAR 3 25 0 15 -4032 -1
-1;
#X obj 201 102 spigot;
#X obj 259 31 tgl 90 0 empty empty START/STOP 0 45 0 15 -4034 -1 -1
0 1;
#X obj 201 32 r beat;
#X obj 114 225 send beat;
#X obj 339 485 r~ out0;
#X obj 392 485 r~ out1;
#X obj 445 485 r~ out2;
#X obj 33 168 s~ out0;
#X obj 218 209 s~ out1;
#X obj 498 485 r~ out3;
#X obj 551 485 r~ out4;
#X obj 604 485 r~ out5;
#X obj 389 184 tabplay_loop;
#X obj 363 157 r~ in;
#X obj 470 128 bng 50 250 50 0 empty empty CLEAR 3 25 0 15 -4032 -1
-1;
#X obj 372 102 spigot;
#X obj 430 31 tgl 90 0 empty empty START/STOP 0 45 0 15 -4034 -1 -1
0 1;
#X obj 372 32 r beat;
#X obj 561 184 tabplay_loop;
#X obj 535 157 r~ in;
#X obj 642 128 bng 50 250 50 0 empty empty CLEAR 3 25 0 15 -4032 -1
-1;
#X obj 544 102 spigot;
#X obj 602 31 tgl 90 0 empty empty START/STOP 0 45 0 15 -4034 -1 -1
0 1;
#X obj 544 32 r beat;
#X obj 734 184 tabplay_loop;
#X obj 708 157 r~ in;
#X obj 815 128 bng 50 250 50 0 empty empty CLEAR 3 25 0 15 -4032 -1
-1;
#X obj 717 102 spigot;
#X obj 775 31 tgl 90 0 empty empty START/STOP 0 45 0 15 -4034 -1 -1
0 1;
#X obj 717 32 r beat;
#X obj 906 184 tabplay_loop;
#X obj 880 157 r~ in;
#X obj 987 128 bng 50 250 50 0 empty empty CLEAR 3 25 0 15 -4032 -1
-1;
#X obj 889 102 spigot;
#X obj 947 31 tgl 90 0 empty empty START/STOP 0 45 0 15 -4034 -1 -1
0 1;
#X obj 889 32 r beat;
#X obj 389 209 s~ out2;
#X obj 561 207 s~ out3;
#X obj 734 208 s~ out4;
#X obj 906 208 s~ out5;
#X obj 1079 185 tabplay_loop;
#X obj 1053 158 r~ in;
#X obj 1160 129 bng 50 250 50 0 empty empty CLEAR 3 25 0 15 -4032 -1
-1;
#X obj 1062 103 spigot;
#X obj 1120 32 tgl 90 0 empty empty START/STOP 0 45 0 15 -4034 -1 -1
0 1;
#X obj 1062 33 r beat;
#X obj 1079 209 s~ out6;
#X obj 657 485 r~ out6;
#X obj 1250 187 tabplay_loop;
#X obj 1224 160 r~ in;
#X obj 1331 131 bng 50 250 50 0 empty empty CLEAR 3 25 0 15 -4032 -1
-1;
#X obj 1233 105 spigot;
#X obj 1291 34 tgl 90 0 empty empty START/STOP 0 45 0 15 -4034 -1 -1
0 1;
#X obj 1233 35 r beat;
#X obj 1250 212 s~ out7;
#X obj 49 416 tabplay_loop;
#X obj 23 389 r~ in;
#X obj 130 360 bng 50 250 50 0 empty empty CLEAR 3 25 0 15 -4032 -1
-1;
#X obj 32 334 spigot;
#X obj 90 263 tgl 90 0 empty empty START/STOP 0 45 0 15 -4034 -1 -1
0 1;
#X obj 32 264 r beat;
#X obj 221 416 tabplay_loop;
#X obj 195 389 r~ in;
#X obj 302 360 bng 50 250 50 0 empty empty CLEAR 3 25 0 15 -4032 -1
-1;
#X obj 204 334 spigot;
#X obj 262 263 tgl 90 0 empty empty START/STOP 0 45 0 15 -4034 -1 -1
0 1;
#X obj 204 264 r beat;
#X obj 394 416 tabplay_loop;
#X obj 368 389 r~ in;
#X obj 475 360 bng 50 250 50 0 empty empty CLEAR 3 25 0 15 -4032 -1
-1;
#X obj 377 334 spigot;
#X obj 435 263 tgl 90 0 empty empty START/STOP 0 45 0 15 -4034 -1 -1
0 1;
#X obj 377 264 r beat;
#X obj 566 416 tabplay_loop;
#X obj 540 389 r~ in;
#X obj 647 360 bng 50 250 50 0 empty empty CLEAR 3 25 0 15 -4032 -1
-1;
#X obj 549 334 spigot;
#X obj 607 263 tgl 90 0 empty empty START/STOP 0 45 0 15 -4034 -1 -1
0 1;
#X obj 549 264 r beat;
#X obj 738 416 tabplay_loop;
#X obj 712 389 r~ in;
#X obj 819 360 bng 50 250 50 0 empty empty CLEAR 3 25 0 15 -4032 -1
-1;
#X obj 721 334 spigot;
#X obj 779 263 tgl 90 0 empty empty START/STOP 0 45 0 15 -4034 -1 -1
0 1;
#X obj 721 264 r beat;
#X obj 911 416 tabplay_loop;
#X obj 885 389 r~ in;
#X obj 992 360 bng 50 250 50 0 empty empty CLEAR 3 25 0 15 -4032 -1
-1;
#X obj 894 334 spigot;
#X obj 952 263 tgl 90 0 empty empty START/STOP 0 45 0 15 -4034 -1 -1
0 1;
#X obj 894 264 r beat;
#X obj 1083 416 tabplay_loop;
#X obj 1057 389 r~ in;
#X obj 1164 360 bng 50 250 50 0 empty empty CLEAR 3 25 0 15 -4032 -1
-1;
#X obj 1066 334 spigot;
#X obj 1124 263 tgl 90 0 empty empty START/STOP 0 45 0 15 -4034 -1
-1 0 1;
#X obj 1066 264 r beat;
#X obj 710 485 r~ out7;
#X obj 763 485 r~ out8;
#X obj 816 485 r~ out9;
#X obj 49 441 s~ out8;
#X obj 221 442 s~ out9;
#X obj 394 442 s~ out10;
#X obj 566 441 s~ out11;
#X obj 738 441 s~ out12;
#X obj 911 441 s~ out13;
#X obj 1083 441 s~ out14;
#X obj 869 485 r~ out10;
#X obj 929 485 r~ out11;
#X obj 989 485 r~ out12;
#X obj 1049 485 r~ out13;
#X obj 1109 485 r~ out14;
#X obj 114 168 bng 50 250 50 0 empty empty empty 17 7 0 10 -257985
-1 -1;
#X obj 33 120 r~ in;
#X obj 1255 416 tabplay_loop;
#X obj 1229 389 r~ in;
#X obj 1336 359 bng 50 250 50 0 empty empty CLEAR 3 25 0 15 -4032 -1
-1;
#X obj 1238 334 spigot;
#X obj 1296 263 tgl 90 0 empty empty START/STOP 0 45 0 15 -4034 -1
-1 0 1;
#X obj 1238 264 r beat;
#X obj 1255 441 s~ out15;
#X obj 1169 485 r~ out15;
#X obj 301 513 vsl 35 128 0 127 0 0 empty empty empty 0 -9 0 10 -260097
-1 -1 0 1;
#X obj 293 653 *~;
#X obj 348 513 vsl 35 128 0 127 0 0 empty empty empty 0 -9 0 10 -260097
-1 -1 7200 1;
#X obj 340 653 *~;
#X obj 400 514 vsl 35 128 0 127 0 0 empty empty empty 0 -9 0 10 -260097
-1 -1 0 1;
#X obj 392 654 *~;
#X obj 453 513 vsl 35 128 0 127 0 0 empty empty empty 0 -9 0 10 -260097
-1 -1 0 1;
#X obj 445 653 *~;
#X obj 509 511 vsl 35 128 0 127 0 0 empty empty empty 0 -9 0 10 -260097
-1 -1 0 1;
#X obj 498 653 *~;
#X obj 560 512 vsl 35 128 0 127 0 0 empty empty empty 0 -9 0 10 -260097
-1 -1 0 1;
#X obj 553 652 *~;
#X obj 617 512 vsl 35 128 0 127 0 0 empty empty empty 0 -9 0 10 -260097
-1 -1 0 1;
#X obj 605 652 *~;
#X obj 669 511 vsl 35 128 0 127 0 0 empty empty empty 0 -9 0 10 -260097
-1 -1 0 1;
#X obj 656 649 *~;
#X obj 1178 509 vsl 35 128 0 127 0 0 empty empty empty 0 -9 0 10 -260097
-1 -1 0 1;
#X obj 1170 649 *~;
#X obj 719 510 vsl 35 128 0 127 0 0 empty empty empty 0 -9 0 10 -260097
-1 -1 0 1;
#X obj 711 650 *~;
#X obj 772 510 vsl 35 128 0 127 0 0 empty empty empty 0 -9 0 10 -260097
-1 -1 0 1;
#X obj 764 650 *~;
#X obj 825 510 vsl 35 128 0 127 0 0 empty empty empty 0 -9 0 10 -260097
-1 -1 0 1;
#X obj 817 650 *~;
#X obj 877 511 vsl 35 128 0 127 0 0 empty empty empty 0 -9 0 10 -260097
-1 -1 0 1;
#X obj 869 651 *~;
#X obj 936 511 vsl 35 128 0 127 0 0 empty empty empty 0 -9 0 10 -260097
-1 -1 0 1;
#X obj 928 651 *~;
#X obj 996 509 vsl 35 128 0 127 0 0 empty empty empty 0 -9 0 10 -260097
-1 -1 0 1;
#X obj 988 649 *~;
#X obj 1057 509 vsl 35 128 0 127 0 0 empty empty empty 0 -9 0 10 -260097
-1 -1 0 1;
#X obj 1049 649 *~;
#X obj 1118 511 vsl 35 128 0 127 0 0 empty empty empty 0 -9 0 10 -260097
-1 -1 0 1;
#X obj 1110 651 *~;
#X obj 293 485 r~ in;
#X obj 421 721 cnv 15 120 100 empty empty empty 20 12 0 14 -258875
-66577 0;
#X obj 430 793 writesf~ 2;
#X msg 494 760 stop;
#X msg 441 760 start;
#X msg 430 728 open mix.wav;
#X connect 1 0 19 0;
#X connect 1 1 124 0;
#X connect 2 0 4 0;
#X connect 2 1 4 0;
#X connect 5 0 6 1;
#X connect 6 0 3 0;
#X connect 6 0 3 1;
#X connect 6 0 170 0;
#X connect 6 0 170 1;
#X connect 7 0 1 2;
#X connect 8 0 1 1;
#X connect 9 0 20 0;
#X connect 10 0 9 0;
#X connect 11 0 9 2;
#X connect 12 0 13 0;
#X connect 12 0 9 1;
#X connect 13 0 12 1;
#X connect 14 0 12 0;
#X connect 16 0 137 0;
#X connect 17 0 139 0;
#X connect 18 0 141 0;
#X connect 21 0 143 0;
#X connect 22 0 145 0;
#X connect 23 0 147 0;
#X connect 24 0 48 0;
#X connect 25 0 24 0;
#X connect 26 0 24 2;
#X connect 27 0 28 0;
#X connect 27 0 24 1;
#X connect 28 0 27 1;
#X connect 29 0 27 0;
#X connect 30 0 49 0;
#X connect 31 0 30 0;
#X connect 32 0 30 2;
#X connect 33 0 34 0;
#X connect 33 0 30 1;
#X connect 34 0 33 1;
#X connect 35 0 33 0;
#X connect 36 0 50 0;
#X connect 37 0 36 0;
#X connect 38 0 36 2;
#X connect 39 0 40 0;
#X connect 39 0 36 1;
#X connect 40 0 39 1;
#X connect 41 0 39 0;
#X connect 42 0 51 0;
#X connect 43 0 42 0;
#X connect 44 0 42 2;
#X connect 45 0 46 0;
#X connect 45 0 42 1;
#X connect 46 0 45 1;
#X connect 47 0 45 0;
#X connect 52 0 58 0;
#X connect 53 0 52 0;
#X connect 54 0 52 2;
#X connect 55 0 56 0;
#X connect 55 0 52 1;
#X connect 56 0 55 1;
#X connect 57 0 55 0;
#X connect 59 0 149 0;
#X connect 60 0 66 0;
#X connect 61 0 60 0;
#X connect 62 0 60 2;
#X connect 63 0 64 0;
#X connect 63 0 60 1;
#X connect 64 0 63 1;
#X connect 65 0 63 0;
#X connect 67 0 112 0;
#X connect 68 0 67 0;
#X connect 69 0 67 2;
#X connect 70 0 71 0;
#X connect 70 0 67 1;
#X connect 71 0 70 1;
#X connect 72 0 70 0;
#X connect 73 0 113 0;
#X connect 74 0 73 0;
#X connect 75 0 73 2;
#X connect 76 0 77 0;
#X connect 76 0 73 1;
#X connect 77 0 76 1;
#X connect 78 0 76 0;
#X connect 79 0 114 0;
#X connect 80 0 79 0;
#X connect 81 0 79 2;
#X connect 82 0 83 0;
#X connect 82 0 79 1;
#X connect 83 0 82 1;
#X connect 84 0 82 0;
#X connect 85 0 115 0;
#X connect 86 0 85 0;
#X connect 87 0 85 2;
#X connect 88 0 89 0;
#X connect 88 0 85 1;
#X connect 89 0 88 1;
#X connect 90 0 88 0;
#X connect 91 0 116 0;
#X connect 92 0 91 0;
#X connect 93 0 91 2;
#X connect 94 0 95 0;
#X connect 94 0 91 1;
#X connect 95 0 94 1;
#X connect 96 0 94 0;
#X connect 97 0 117 0;
#X connect 98 0 97 0;
#X connect 99 0 97 2;
#X connect 100 0 101 0;
#X connect 100 0 97 1;
#X connect 101 0 100 1;
#X connect 102 0 100 0;
#X connect 103 0 118 0;
#X connect 104 0 103 0;
#X connect 105 0 103 2;
#X connect 106 0 107 0;
#X connect 106 0 103 1;
#X connect 107 0 106 1;
#X connect 108 0 106 0;
#X connect 109 0 153 0;
#X connect 110 0 155 0;
#X connect 111 0 157 0;
#X connect 119 0 159 0;
#X connect 120 0 161 0;
#X connect 121 0 163 0;
#X connect 122 0 165 0;
#X connect 123 0 167 0;
#X connect 124 0 15 0;
#X connect 125 0 1 0;
#X connect 126 0 132 0;
#X connect 127 0 126 0;
#X connect 128 0 126 2;
#X connect 129 0 130 0;
#X connect 129 0 126 1;
#X connect 130 0 129 1;
#X connect 131 0 129 0;
#X connect 133 0 151 0;
#X connect 134 0 135 1;
#X connect 135 0 6 0;
#X connect 136 0 137 1;
#X connect 137 0 6 0;
#X connect 138 0 139 1;
#X connect 139 0 6 0;
#X connect 140 0 141 1;
#X connect 141 0 6 0;
#X connect 142 0 143 1;
#X connect 143 0 6 0;
#X connect 144 0 145 1;
#X connect 145 0 6 0;
#X connect 146 0 147 1;
#X connect 147 0 6 0;
#X connect 148 0 149 1;
#X connect 149 0 6 0;
#X connect 150 0 151 1;
#X connect 151 0 6 0;
#X connect 152 0 153 1;
#X connect 153 0 6 0;
#X connect 154 0 155 1;
#X connect 155 0 6 0;
#X connect 156 0 157 1;
#X connect 157 0 6 0;
#X connect 158 0 159 1;
#X connect 159 0 6 0;
#X connect 160 0 161 1;
#X connect 161 0 6 0;
#X connect 162 0 163 1;
#X connect 163 0 6 0;
#X connect 164 0 165 1;
#X connect 165 0 6 0;
#X connect 166 0 167 1;
#X connect 167 0 6 0;
#X connect 168 0 135 0;
#X connect 171 0 170 0;
#X connect 172 0 170 0;
#X connect 173 0 170 0;
#X connect 173 0 172 0;
