#N canvas 408 168 879 429 12;
#X obj 557 200 getsize float-array z;
#X floatatom 557 229 5 0 0 0 - - -;
#X msg 673 259 send my-array-pointer;
#X obj 557 171 r my-array-pointer;
#X obj 673 287 array define test 44100;
#X obj 77 10 inlet;
#X obj 12 10 inlet~;
#X obj 300 373 outlet~;
#X obj 318 319 tabplay~ \$0-array;
#X obj 14 356 tabwrite~ \$0-array;
#X obj 77 82 sel 1;
#X msg 21 120 start;
#X msg 72 119 stop;
#X obj 163 144 timer;
#X obj 723 51 samplerate~;
#X obj 723 27 bng 15 250 50 0 empty empty empty 17 7 0 10 -262144 -1
-1;
#X floatatom 723 80 5 0 0 0 - - -;
#X obj 722 106 v;
#X text 686 50 TODO;
#X obj 195 114 bng 15 250 50 0 empty empty empty 17 7 0 10 -262144
-1 -1;
#X obj 163 114 bng 15 250 50 0 empty empty empty 17 7 0 10 -262144
-1 -1;
#X obj 317 169 metro;
#X obj 318 298 bng 15 250 50 0 empty empty empty 17 7 0 10 -262144
-1 -1;
#X obj 77 49 tgl 15 0 empty empty empty 17 7 0 10 -262144 -1 -1 1 1
;
#X obj 154 56 array define \$0-array 4.41e+06;
#X text 174 34 100 seconds max loop length;
#X obj 400 13 inlet;
#X msg 400 42 stop;
#X obj 521 372 outlet;
#N canvas 0 25 621 421 arr 0;
#X obj 10 10 array define myarray;
#X restore 606 288 pd arr;
#X obj 606 259 s pd-arr;
#X msg 606 230 obj 10 10 array define myarray;
#X obj 111 310 vline~;
#X floatatom 164 235 5 0 0 0 - - -;
#X msg 111 285 0 0 0 \, 1 \$1 0 \, 0 \$1 \$2;
#X obj 111 260 pack 0 0;
#X obj 164 213 -;
#X obj 300 345 *~;
#X text 16 185 duration [ms];
#X obj 400 69 s \$0-stop;
#X obj 317 135 r \$0-stop;
#X obj 348 296 r \$0-stop;
#X msg 111 185 15;
#X obj 182 191 * 3;
#X text 65 168 fade-in;
#X text 211 194 longer fade-out;
#X connect 0 0 1 0;
#X connect 2 0 4 0;
#X connect 3 0 0 0;
#X connect 5 0 23 0;
#X connect 5 0 24 0;
#X connect 6 0 9 0;
#X connect 8 0 37 1;
#X connect 10 0 11 0;
#X connect 10 0 20 0;
#X connect 10 1 12 0;
#X connect 10 1 19 0;
#X connect 11 0 9 0;
#X connect 12 0 9 0;
#X connect 13 0 21 1;
#X connect 13 0 36 0;
#X connect 14 0 16 0;
#X connect 15 0 14 0;
#X connect 19 0 13 1;
#X connect 19 0 21 0;
#X connect 20 0 13 0;
#X connect 21 0 28 0;
#X connect 21 0 42 0;
#X connect 21 0 22 0;
#X connect 22 0 8 0;
#X connect 23 0 10 0;
#X connect 26 0 27 0;
#X connect 27 0 39 0;
#X connect 31 0 30 0;
#X connect 32 0 37 0;
#X connect 33 0 35 1;
#X connect 34 0 32 0;
#X connect 35 0 34 0;
#X connect 36 0 33 0;
#X connect 37 0 7 0;
#X connect 40 0 21 0;
#X connect 41 0 8 0;
#X connect 42 0 35 0;
#X connect 42 0 43 0;
#X connect 43 0 36 1;
