#N canvas 372 394 829 393 12;
#X obj 611 285 getsize float-array z;
#X floatatom 611 314 5 0 0 0 - - -;
#X msg 612 195 send my-array-pointer;
#X obj 611 256 r my-array-pointer;
#X obj 612 223 array define test 44100;
#X obj 77 10 inlet;
#X obj 12 10 inlet~;
#X obj 176 262 outlet~;
#X obj 176 234 tabplay~ \$0-array;
#X obj 13 234 tabwrite~ \$0-array;
#X obj 77 82 sel 1;
#X msg 21 120 start;
#X msg 72 119 stop;
#X obj 126 151 timer;
#X obj 491 231 samplerate~;
#X obj 491 207 bng 15 250 50 0 empty empty empty 17 7 0 10 -262144
-1 -1;
#X floatatom 491 260 5 0 0 0 - - -;
#X obj 490 286 v;
#X text 454 230 TODO;
#X obj 158 121 bng 15 250 50 0 empty empty empty 17 7 0 10 -262144
-1 -1;
#X obj 126 121 bng 15 250 50 0 empty empty empty 17 7 0 10 -262144
-1 -1;
#X obj 176 183 metro;
#X obj 176 211 bng 15 250 50 0 empty empty empty 17 7 0 10 -262144
-1 -1;
#X obj 77 49 tgl 15 0 empty empty empty 17 7 0 10 -262144 -1 -1 0 1
;
#X obj 154 56 array define \$0-array 4.41e+06;
#X text 174 34 100 seconds max loop length;
#X obj 379 13 inlet;
#X msg 379 87 stop;
#X obj 369 233 outlet;
#X connect 0 0 1 0;
#X connect 2 0 4 0;
#X connect 3 0 0 0;
#X connect 5 0 23 0;
#X connect 5 0 24 0;
#X connect 6 0 9 0;
#X connect 8 0 7 0;
#X connect 10 0 11 0;
#X connect 10 0 20 0;
#X connect 10 1 12 0;
#X connect 10 1 19 0;
#X connect 11 0 9 0;
#X connect 12 0 9 0;
#X connect 13 0 21 1;
#X connect 14 0 16 0;
#X connect 15 0 14 0;
#X connect 19 0 13 1;
#X connect 19 0 21 0;
#X connect 20 0 13 0;
#X connect 21 0 22 0;
#X connect 21 0 28 0;
#X connect 22 0 8 0;
#X connect 23 0 10 0;
#X connect 26 0 27 0;
#X connect 27 0 8 0;
#X connect 27 0 21 0;
